HIERARCHY
ROOT newVegas:Hips
{
	OFFSET 0.000000 96.479958 0.000000
	CHANNELS 6 Xposition Yposition Zposition Xrotation Yrotation Zrotation
	JOINT newVegas:Pelvis
	{
		OFFSET 0.000000 0.000000 0.000000
		CHANNELS 3 Xrotation Yrotation Zrotation
		JOINT newVegas:LeftUpLeg
		{
			OFFSET 18.735201 -5.666702 -4.541200
			CHANNELS 3 Xrotation Yrotation Zrotation
			JOINT newVegas:LeftLeg
			{
				OFFSET -0.021200 -31.938179 0.493100
				CHANNELS 3 Xrotation Yrotation Zrotation
				JOINT newVegas:LeftFoot
				{
					OFFSET 0.021200 -31.938179 -4.336299
					CHANNELS 3 Xrotation Yrotation Zrotation
					JOINT newVegas:LeftToeBase
					{
						OFFSET 0.943001 -26.722000 15.023500
						CHANNELS 3 Xrotation Yrotation Zrotation
						End Site
						{
							OFFSET 0.000000 30.670183 0.000000
						}
					}
				}
				JOINT newVegas:Left_PantLeg
				{
					OFFSET 0.663870 -9.044666 -1.108900
					CHANNELS 3 Xrotation Yrotation Zrotation
					End Site
					{
						OFFSET 1.415995 20.635357 0.000000
					}
				}
			}
		}
		JOINT newVegas:RightUpLeg
		{
			OFFSET -18.735201 -5.666702 -4.541200
			CHANNELS 3 Xrotation Yrotation Zrotation
			JOINT newVegas:RightLeg
			{
				OFFSET 0.018946 -31.938133 0.493100
				CHANNELS 3 Xrotation Yrotation Zrotation
				JOINT newVegas:RightFoot
				{
					OFFSET -0.018946 -31.938126 -4.336299
					CHANNELS 3 Xrotation Yrotation Zrotation
					JOINT newVegas:RightToeBase
					{
						OFFSET -0.943001 -26.722004 15.023500
						CHANNELS 3 Xrotation Yrotation Zrotation
						End Site
						{
							OFFSET 0.000000 30.670187 0.000000
						}
					}
				}
				JOINT newVegas:Right_PantLeg
				{
					OFFSET -0.661674 -9.044716 -1.108900
					CHANNELS 3 Xrotation Yrotation Zrotation
					End Site
					{
						OFFSET -1.415958 20.635269 0.000000
					}
				}
			}
		}
	}
	JOINT newVegas:Spine
	{
		OFFSET 0.000000 10.199997 -0.299500
		CHANNELS 3 Xrotation Yrotation Zrotation
		JOINT newVegas:Spine1
		{
			OFFSET 0.000000 11.900002 -1.516600
			CHANNELS 3 Xrotation Yrotation Zrotation
			JOINT newVegas:Spine2
			{
				OFFSET 0.000000 13.600006 -2.842500
				CHANNELS 3 Xrotation Yrotation Zrotation
				JOINT newVegas:Neck
				{
					OFFSET 0.000000 9.624100 -2.890100
					CHANNELS 3 Xrotation Yrotation Zrotation
					JOINT newVegas:Head
					{
						OFFSET 0.000000 14.068802 -1.351900
						CHANNELS 3 Xrotation Yrotation Zrotation
						JOINT newVegas:Hair_Back
						{
							OFFSET 0.000000 3.231903 -17.524799
							CHANNELS 3 Xrotation Yrotation Zrotation
							End Site
							{
								OFFSET 0.000000 19.849884 0.000000
							}
						}
						JOINT newVegas:Hair_Front
						{
							OFFSET 0.000000 31.260406 4.573800
							CHANNELS 3 Xrotation Yrotation Zrotation
							JOINT newVegas:Hair_Front1
							{
								OFFSET 0.000000 2.284103 11.993300
								CHANNELS 3 Xrotation Yrotation Zrotation
								JOINT newVegas:Hair_Front2
								{
									OFFSET 0.000000 2.284103 11.993300
									CHANNELS 3 Xrotation Yrotation Zrotation
									End Site
									{
										OFFSET 0.000000 12.208862 0.000000
									}
								}
							}
						}
						JOINT newVegas:Jowel
						{
							OFFSET 0.000000 -7.458206 6.864100
							CHANNELS 3 Xrotation Yrotation Zrotation
							End Site
							{
								OFFSET 0.000000 19.849884 0.000000
							}
						}
					}
				}
				JOINT newVegas:LeftShoulder
				{
					OFFSET 15.263000 10.923401 -0.547700
					CHANNELS 3 Xrotation Yrotation Zrotation
					JOINT newVegas:LeftArm
					{
						OFFSET 25.438599 -2.830597 -13.032500
						CHANNELS 3 Xrotation Yrotation Zrotation
						JOINT newVegas:LeftForeArm
						{
							OFFSET 29.960503 0.000000 0.000000
							CHANNELS 3 Xrotation Yrotation Zrotation
							JOINT newVegas:LeftHand
							{
								OFFSET 27.849251 0.000000 0.000000
								CHANNELS 3 Xrotation Yrotation Zrotation
								JOINT newVegas:LeftHandThumb1
								{
									OFFSET 4.487587 -3.305161 6.305391
									CHANNELS 3 Xrotation Yrotation Zrotation
									JOINT newVegas:LeftHandThumb2
									{
										OFFSET 5.480453 -3.164139 3.164143
										CHANNELS 3 Xrotation Yrotation Zrotation
										JOINT newVegas:LeftHandThumb3
										{
											OFFSET 5.159721 -2.978973 2.978967
											CHANNELS 3 Xrotation Yrotation Zrotation
											End Site
											{
												OFFSET 2.494507 5.926697 1.738678
											}
										}
									}
								}
								JOINT newVegas:LeftHandIndex1
								{
									OFFSET 18.578728 -0.527832 5.208049
									CHANNELS 3 Xrotation Yrotation Zrotation
									JOINT newVegas:LeftHandIndex2
									{
										OFFSET 3.192009 0.000000 0.000000
										CHANNELS 3 Xrotation Yrotation Zrotation
										JOINT newVegas:LeftHandIndex3
										{
											OFFSET 3.835129 0.000000 0.000000
											CHANNELS 3 Xrotation Yrotation Zrotation
											End Site
											{
												OFFSET -0.034599 3.816971 0.371180
											}
										}
									}
								}
								JOINT newVegas:LeftHandMiddle1
								{
									OFFSET 18.476105 0.000000 0.000000
									CHANNELS 3 Xrotation Yrotation Zrotation
									JOINT newVegas:LeftHandMiddle2
									{
										OFFSET 3.324875 0.000000 0.000000
										CHANNELS 3 Xrotation Yrotation Zrotation
										JOINT newVegas:LeftHandMiddle3
										{
											OFFSET 4.596550 0.000000 0.000000
											CHANNELS 3 Xrotation Yrotation Zrotation
											End Site
											{
												OFFSET 0.057701 4.578827 0.399218
											}
										}
									}
								}
								JOINT newVegas:LeftHandRing1
								{
									OFFSET 17.732719 0.121887 -4.201567
									CHANNELS 3 Xrotation Yrotation Zrotation
									JOINT newVegas:LeftHandRing2
									{
										OFFSET 2.733170 0.000000 0.000000
										CHANNELS 3 Xrotation Yrotation Zrotation
										JOINT newVegas:LeftHandRing3
										{
											OFFSET 3.178268 0.000000 0.000000
											CHANNELS 3 Xrotation Yrotation Zrotation
											End Site
											{
												OFFSET 0.119102 3.170624 0.185394
											}
										}
									}
								}
								JOINT newVegas:LeftHandPinky1
								{
									OFFSET 15.989624 -0.606689 -7.535461
									CHANNELS 3 Xrotation Yrotation Zrotation
									JOINT newVegas:LeftHandPinky2
									{
										OFFSET 2.538986 0.000000 0.000000
										CHANNELS 3 Xrotation Yrotation Zrotation
										JOINT newVegas:LeftHandPinky3
										{
											OFFSET 2.593102 0.000000 0.000000
											CHANNELS 3 Xrotation Yrotation Zrotation
											End Site
											{
												OFFSET -0.150902 2.584198 0.152708
											}
										}
									}
								}
							}
							JOINT newVegas:Left_Sleeve
							{
								OFFSET 0.267448 -0.649796 0.577675
								CHANNELS 3 Xrotation Yrotation Zrotation
								End Site
								{
									OFFSET 0.000000 15.991241 0.000000
								}
							}
							JOINT newVegas:Left_CapeC
							{
								OFFSET 15.715958 -8.608795 -6.935905
								CHANNELS 3 Xrotation Yrotation Zrotation
								JOINT newVegas:Left_CapeC1
								{
									OFFSET 0.000000 -8.688499 0.000000
									CHANNELS 3 Xrotation Yrotation Zrotation
									End Site
									{
										OFFSET 0.000000 8.688499 0.000000
									}
								}
							}
						}
						JOINT newVegas:Left_CapeB
						{
							OFFSET 26.118385 -8.608795 -7.079235
							CHANNELS 3 Xrotation Yrotation Zrotation
							JOINT newVegas:Left_CapeB1
							{
								OFFSET 0.000000 -8.688499 0.000000
								CHANNELS 3 Xrotation Yrotation Zrotation
								End Site
								{
									OFFSET 0.000000 8.688499 0.000000
								}
							}
						}
						JOINT newVegas:Left_CapeA
						{
							OFFSET 5.115639 -8.608795 -10.395809
							CHANNELS 3 Xrotation Yrotation Zrotation
							JOINT newVegas:Left_CapeA1
							{
								OFFSET 0.000000 -8.688499 0.000000
								CHANNELS 3 Xrotation Yrotation Zrotation
								End Site
								{
									OFFSET 0.000000 8.688499 0.000000
								}
							}
						}
					}
				}
				JOINT newVegas:RightShoulder
				{
					OFFSET -15.263000 10.923401 -0.547700
					CHANNELS 3 Xrotation Yrotation Zrotation
					JOINT newVegas:RightArm
					{
						OFFSET -25.438599 -2.830597 -13.032500
						CHANNELS 3 Xrotation Yrotation Zrotation
						JOINT newVegas:RightForeArm
						{
							OFFSET -29.960503 0.000000 0.000000
							CHANNELS 3 Xrotation Yrotation Zrotation
							JOINT newVegas:RightHand
							{
								OFFSET -27.849251 0.000000 0.000000
								CHANNELS 3 Xrotation Yrotation Zrotation
								JOINT newVegas:RightHandThumb1
								{
									OFFSET -4.487587 -3.305161 6.305391
									CHANNELS 3 Xrotation Yrotation Zrotation
									JOINT newVegas:RightHandThumb2
									{
										OFFSET -5.480453 -3.164139 3.164143
										CHANNELS 3 Xrotation Yrotation Zrotation
										JOINT newVegas:RightHandThumb3
										{
											OFFSET -5.159721 -2.978973 2.978967
											CHANNELS 3 Xrotation Yrotation Zrotation
											End Site
											{
												OFFSET -2.494507 5.926697 1.738678
											}
										}
									}
								}
								JOINT newVegas:RightHandIndex1
								{
									OFFSET -18.578728 -0.527832 5.208049
									CHANNELS 3 Xrotation Yrotation Zrotation
									JOINT newVegas:RightHandIndex2
									{
										OFFSET -3.192009 0.000000 0.000000
										CHANNELS 3 Xrotation Yrotation Zrotation
										JOINT newVegas:RightHandIndex3
										{
											OFFSET -3.835129 0.000000 0.000000
											CHANNELS 3 Xrotation Yrotation Zrotation
											End Site
											{
												OFFSET 0.034599 3.816971 0.371180
											}
										}
									}
								}
								JOINT newVegas:RightHandMiddle1
								{
									OFFSET -18.476105 0.000000 0.000000
									CHANNELS 3 Xrotation Yrotation Zrotation
									JOINT newVegas:RightHandMiddle2
									{
										OFFSET -3.324875 0.000000 0.000000
										CHANNELS 3 Xrotation Yrotation Zrotation
										JOINT newVegas:RightHandMiddle3
										{
											OFFSET -4.596550 0.000000 0.000000
											CHANNELS 3 Xrotation Yrotation Zrotation
											End Site
											{
												OFFSET -0.057701 4.578827 0.399218
											}
										}
									}
								}
								JOINT newVegas:RightHandRing1
								{
									OFFSET -17.732719 0.121887 -4.201567
									CHANNELS 3 Xrotation Yrotation Zrotation
									JOINT newVegas:RightHandRing2
									{
										OFFSET -2.733170 0.000000 0.000000
										CHANNELS 3 Xrotation Yrotation Zrotation
										JOINT newVegas:RightHandRing3
										{
											OFFSET -3.178268 0.000000 0.000000
											CHANNELS 3 Xrotation Yrotation Zrotation
											End Site
											{
												OFFSET -0.119102 3.170624 0.185394
											}
										}
									}
								}
								JOINT newVegas:RightHandPinky1
								{
									OFFSET -15.989624 -0.606689 -7.535461
									CHANNELS 3 Xrotation Yrotation Zrotation
									JOINT newVegas:RightHandPinky2
									{
										OFFSET -2.538986 0.000000 0.000000
										CHANNELS 3 Xrotation Yrotation Zrotation
										JOINT newVegas:RightHandPinky3
										{
											OFFSET -2.593102 0.000000 0.000000
											CHANNELS 3 Xrotation Yrotation Zrotation
											End Site
											{
												OFFSET 0.150902 2.584198 0.152708
											}
										}
									}
								}
							}
							JOINT newVegas:Right_CapeC
							{
								OFFSET -15.715958 -8.608795 -6.935905
								CHANNELS 3 Xrotation Yrotation Zrotation
								JOINT newVegas:Right_CapeC1
								{
									OFFSET 0.000000 -8.688499 0.000000
									CHANNELS 3 Xrotation Yrotation Zrotation
									End Site
									{
										OFFSET 0.000000 8.688499 0.000000
									}
								}
							}
							JOINT newVegas:Right_Sleeve
							{
								OFFSET -0.267448 -0.649994 0.577675
								CHANNELS 3 Xrotation Yrotation Zrotation
								End Site
								{
									OFFSET 0.000000 15.991302 0.000000
								}
							}
						}
						JOINT newVegas:Right_CapeA
						{
							OFFSET -5.115540 -8.608795 -10.395824
							CHANNELS 3 Xrotation Yrotation Zrotation
							JOINT newVegas:Right_CapeA1
							{
								OFFSET 0.000000 -8.688499 0.000000
								CHANNELS 3 Xrotation Yrotation Zrotation
								End Site
								{
									OFFSET 0.000000 8.688499 0.000000
								}
							}
						}
						JOINT newVegas:Right_CapeB
						{
							OFFSET -26.118187 -8.608795 -7.079266
							CHANNELS 3 Xrotation Yrotation Zrotation
							JOINT newVegas:Right_CapeB1
							{
								OFFSET 0.000000 -8.688499 0.000000
								CHANNELS 3 Xrotation Yrotation Zrotation
								End Site
								{
									OFFSET 0.000000 8.688499 0.000000
								}
							}
						}
					}
				}
				JOINT newVegas:Left_Collar
				{
					OFFSET 18.625099 8.655502 8.828100
					CHANNELS 3 Xrotation Yrotation Zrotation
					JOINT newVegas:Left_Collar1
					{
						OFFSET 14.783401 10.540405 -1.259500
						CHANNELS 3 Xrotation Yrotation Zrotation
						End Site
						{
							OFFSET 0.000000 18.199875 0.000000
						}
					}
				}
				JOINT newVegas:Collar_Back
				{
					OFFSET 0.000000 15.630707 -20.132601
					CHANNELS 3 Xrotation Yrotation Zrotation
					End Site
					{
						OFFSET 0.000000 22.523010 0.000000
					}
				}
				JOINT newVegas:Left_Peck
				{
					OFFSET 17.239599 -5.132599 25.482599
					CHANNELS 3 Xrotation Yrotation Zrotation
					End Site
					{
						OFFSET 0.000000 22.523010 0.000000
					}
				}
				JOINT newVegas:Right_Peck
				{
					OFFSET -17.239599 -5.132202 25.482599
					CHANNELS 3 Xrotation Yrotation Zrotation
					End Site
					{
						OFFSET 0.000000 22.523010 0.000000
					}
				}
				JOINT newVegas:Right_Collar
				{
					OFFSET -18.625099 8.655792 8.828100
					CHANNELS 3 Xrotation Yrotation Zrotation
					JOINT newVegas:Right_Collar1
					{
						OFFSET -14.783401 10.539993 -1.259500
						CHANNELS 3 Xrotation Yrotation Zrotation
						End Site
						{
							OFFSET 0.000000 18.199631 0.000000
						}
					}
				}
			}
		}
		JOINT newVegas:Belly
		{
			OFFSET 0.000000 -6.540398 9.014299
			CHANNELS 3 Xrotation Yrotation Zrotation
			End Site
			{
				OFFSET 0.000000 11.566666 0.000000
			}
		}
	}
	JOINT newVegas:ElvisFacialAnim_Joint
	{
		OFFSET 1.000000 -95.330101 -8.825800
		CHANNELS 3 Xrotation Yrotation Zrotation
		End Site
		{
			OFFSET 0.000000 35.315800 0.000000
		}
	}
}
MOTION
Frames: 4
Frame Time: 0.016667
-0.754793 85.741768 1.554932 33.925420 -23.222276 7.579395 0.000002 0.000002 -0.000001 -87.081285 2.884972 22.983931 96.110590 4.948746 -4.945972 17.464222 -4.845840 2.760062 -0.000001 -0.000000 -0.000000 -0.000004 0.000001 -0.000000 -51.136250 4.782307 5.591911 47.789553 4.441095 0.460782 -17.249240 -2.087210 0.485738 0.000001 0.000000 0.000000 0.000002 -0.000000 -0.000001 11.661077 3.735736 -2.527081 5.818533 0.259724 -2.809626 -10.931779 0.793506 3.196301 0.041667 1.867142 -1.683900 0.041659 1.867150 -1.683904 -0.000001 0.000000 0.000001 0.041693 1.867133 -1.683902 0.041749 1.867170 -1.683911 0.000000 -0.000000 0.000001 -0.000001 0.000000 0.000000 1.952237 -2.052954 14.106886 -76.027341 17.447734 -39.907631 -79.531372 -83.559496 -82.552767 -40.469749 -0.152848 8.942045 17.551585 -5.699204 -12.932259 10.850562 26.127717 8.644745 0.000003 -0.000005 -0.000005 13.980904 1.201581 -55.004367 0.370803 1.161719 -65.441880 0.000001 -0.000002 -0.000001 7.504732 1.174494 -63.778510 1.807874 1.475638 -64.568005 0.000001 -0.000002 0.000000 8.574308 2.179116 -75.148992 -0.207622 1.009263 -57.855056 -0.000004 -0.000001 0.000001 10.030107 13.637124 -84.750244 0.877121 0.062301 -64.595469 0.000001 -0.000002 -0.000002 0.000003 0.000001 -0.000001 0.000003 0.000001 -0.000001 0.000003 0.000001 0.000000 -0.000001 0.000000 0.000001 -0.000002 -0.000001 -0.000001 -0.000001 0.000000 0.000001 -0.000003 -0.000002 -0.000000 4.985246 19.106682 8.633894 -22.095486 5.720155 42.521326 29.456693 69.546864 -32.206213 0.332155 10.304455 -5.342079 18.329284 0.310711 -9.071063 -2.198360 -31.113561 7.361195 0.000006 -0.000001 -0.000004 2.375170 -3.668642 30.846985 -2.142100 -2.481813 41.032932 0.000001 0.000000 -0.000000 -1.972131 -5.717193 36.022008 0.289272 -5.113419 49.347932 -0.000003 -0.000003 -0.000000 -3.257764 -8.572662 37.723340 4.044282 -4.071790 59.216920 0.000001 -0.000001 0.000000 -6.464738 -11.358806 54.840873 10.730549 -2.567717 66.401808 -0.000001 -0.000000 -0.000001 -0.000002 0.000001 0.000002 -0.000001 -0.000001 0.000002 -0.000002 0.000001 0.000002 -0.000000 0.000003 0.000003 -0.000000 0.000003 0.000001 -0.000000 0.000003 0.000003 -0.000000 0.000002 0.000003 0.000001 0.000000 0.000001 0.000001 0.000000 0.000001 0.000001 0.000000 0.000001 0.000001 0.000000 0.000001 0.000001 0.000000 0.000001 0.000001 0.000000 0.000001 0.000001 0.000000 0.000001 0.000001 0.000001 -0.000000 0.000002 0.000002 -0.000001 
-1.129195 86.348785 8.282845 32.008500 -21.877528 7.146891 0.000001 0.000001 -0.000001 -90.401665 1.811120 22.258854 93.549590 5.043672 -4.428723 16.480092 -4.928764 1.151037 -0.000001 0.000000 -0.000000 -0.000001 -0.000000 0.000000 -44.543669 4.874505 2.589379 47.103826 3.351489 0.172949 -15.491456 -5.054810 3.626615 0.000000 -0.000001 0.000001 0.000002 0.000000 -0.000001 13.547510 4.190400 -4.486100 4.946177 0.681146 -1.790055 -10.657560 0.747526 3.502207 -0.280921 1.742157 -1.456767 -0.280892 1.742158 -1.456772 0.000001 -0.000001 0.000000 -0.280834 1.742161 -1.456773 -0.280900 1.742165 -1.456771 -0.000003 0.000000 -0.000000 0.000001 -0.000001 0.000000 1.850596 -1.530462 12.872936 -74.590242 15.606156 -37.843373 -144.943608 -87.295623 -147.420098 -48.350868 2.730430 12.545423 17.551585 -5.699202 -12.932259 10.850550 26.127721 8.644747 0.000000 0.000001 -0.000001 13.980901 1.201581 -55.004360 0.370801 1.161719 -65.441880 -0.000004 -0.000002 0.000002 7.504732 1.174494 -63.778510 1.807873 1.475639 -64.568005 -0.000000 0.000001 -0.000001 8.574307 2.179114 -75.148992 -0.207612 1.009256 -57.855056 0.000001 -0.000001 -0.000001 10.030108 13.637125 -84.750244 0.877117 0.062296 -64.595476 0.000001 -0.000002 -0.000000 -0.000003 0.000005 -0.000002 -0.000003 0.000005 -0.000002 -0.000003 0.000006 -0.000002 -0.000001 0.000003 0.000001 -0.000001 0.000002 -0.000001 -0.000001 0.000003 0.000001 -0.000003 0.000002 -0.000000 4.599370 20.091985 7.394491 -22.228622 2.483215 40.725898 73.013923 78.448759 -77.195809 3.828283 11.723706 0.088482 16.754304 0.369584 -8.461185 -1.642452 -29.135787 6.903594 0.000001 -0.000004 -0.000001 2.171749 -3.424943 28.919438 -2.060039 -2.222330 38.754251 -0.000000 -0.000001 -0.000000 -1.682256 -5.183763 33.477380 0.193951 -4.713290 48.099630 0.000000 -0.000001 -0.000001 -2.821111 -8.304351 35.271172 3.590736 -3.876618 56.964911 -0.000001 -0.000004 -0.000001 -6.055264 -10.420625 51.003987 9.770727 -2.646425 64.230382 0.000002 0.000001 0.000001 -0.000000 0.000001 0.000001 -0.000000 -0.000001 0.000002 -0.000000 0.000000 0.000001 -0.000001 0.000000 -0.000003 -0.000000 0.000000 -0.000003 -0.000001 0.000000 -0.000003 -0.000000 -0.000000 -0.000003 0.000002 -0.000001 0.000000 0.000002 -0.000001 0.000000 0.000002 -0.000001 0.000000 0.000002 -0.000001 0.000000 0.000002 -0.000001 0.000000 0.000002 -0.000001 0.000000 0.000002 -0.000001 0.000000 -0.000001 0.000000 -0.000001 0.000001 0.000001 -0.000001 
-1.558805 86.938538 15.001425 30.055653 -20.496404 6.828418 0.000000 -0.000002 0.000001 -92.738116 1.261452 21.394225 89.299348 5.429591 -3.975636 15.405736 -4.948539 -0.620435 -0.000001 -0.000000 0.000000 0.000002 -0.000000 0.000001 -36.477568 4.830735 -0.437174 43.741915 2.570711 -0.110263 -12.030327 -8.367014 7.447649 0.000000 0.000000 -0.000001 0.000004 -0.000000 -0.000000 15.524486 4.740737 -6.737136 4.029726 1.227236 -0.599440 -10.285319 0.762049 3.923218 -0.636378 1.542009 -1.261101 -0.636376 1.542004 -1.261100 -0.000000 0.000000 -0.000000 -0.636372 1.542016 -1.261104 -0.636346 1.542000 -1.261101 -0.000001 0.000001 -0.000000 -0.000000 0.000000 -0.000001 1.718139 -1.109382 11.529364 -73.265486 13.679102 -35.280536 -210.645957 -84.574469 -212.480082 -56.352968 4.804322 15.957400 17.551585 -5.699209 -12.932257 10.850558 26.127726 8.644749 -0.000005 -0.000001 -0.000006 13.980903 1.201577 -55.004367 0.370803 1.161718 -65.441887 -0.000002 0.000001 0.000005 7.504732 1.174491 -63.778510 1.807868 1.475638 -64.568005 0.000001 -0.000001 0.000001 8.574306 2.179117 -75.148979 -0.207619 1.009260 -57.855049 -0.000001 -0.000004 -0.000002 10.030110 13.637123 -84.750244 0.877119 0.062299 -64.595476 0.000001 -0.000001 -0.000005 -0.000000 0.000001 0.000001 -0.000000 0.000001 0.000001 -0.000001 0.000001 0.000001 -0.000001 -0.000002 -0.000001 -0.000001 -0.000003 -0.000001 -0.000001 -0.000002 -0.000001 -0.000003 -0.000003 -0.000002 4.280013 20.150721 5.717933 -22.945327 2.376922 38.931477 122.509797 76.439796 -127.618219 5.357779 7.052876 3.426939 15.011016 0.421161 -7.763760 -1.045730 -26.961176 6.336301 -0.000001 0.000000 -0.000002 1.966053 -3.143421 26.765517 -1.949418 -1.946052 36.208800 0.000001 -0.000001 -0.000001 -1.319216 -4.630103 30.634665 0.107744 -4.266984 46.698714 0.000001 -0.000003 -0.000000 -2.322585 -8.050478 32.533048 3.109241 -3.624297 54.449985 -0.000000 0.000001 -0.000001 -5.502874 -9.469297 46.733199 8.715326 -2.657320 61.799272 0.000000 0.000001 0.000001 -0.000001 0.000000 0.000001 -0.000001 0.000001 0.000001 -0.000001 0.000000 0.000001 -0.000000 0.000000 -0.000000 -0.000001 0.000000 0.000000 -0.000000 0.000000 -0.000000 -0.000000 0.000000 0.000002 -0.000001 0.000000 -0.000000 -0.000001 0.000000 -0.000000 -0.000001 0.000000 -0.000000 -0.000001 0.000000 -0.000000 -0.000001 0.000000 -0.000000 -0.000001 0.000000 -0.000000 -0.000001 0.000000 -0.000000 -0.000003 0.000000 -0.000000 0.000000 -0.000002 0.000001 
-2.033645 87.484215 21.591784 28.089691 -19.116352 6.605020 -0.000000 -0.000001 0.000000 -93.296204 1.502146 20.338271 83.153155 6.174603 -3.526655 14.143121 -4.898486 -2.386180 0.000001 -0.000000 -0.000000 0.000000 -0.000000 0.000001 -27.734036 4.577013 -3.170368 38.469534 1.455061 -0.365603 -6.744763 -10.895582 11.297032 -0.000001 0.000000 -0.000000 0.000002 0.000001 -0.000001 17.599241 5.378567 -9.140634 3.077284 1.862032 0.679607 -9.831927 0.832859 4.395545 -1.018725 1.277185 -1.093611 -1.018714 1.277187 -1.093611 0.000001 0.000000 0.000000 -1.018726 1.277189 -1.093610 -1.018727 1.277179 -1.093611 0.000001 0.000001 -0.000000 0.000001 0.000000 0.000000 1.645538 -1.000237 9.830194 -71.214496 12.734332 -32.673586 -207.557127 -81.794725 -208.882894 -60.947670 5.792279 18.734729 17.551582 -5.699200 -12.932259 10.850552 26.127722 8.644748 0.000003 -0.000002 -0.000003 13.980903 1.201584 -55.004367 0.370804 1.161720 -65.441880 -0.000000 -0.000003 0.000001 7.504732 1.174494 -63.778510 1.807871 1.475639 -64.568012 -0.000001 0.000000 -0.000002 8.574307 2.179116 -75.148992 -0.207617 1.009262 -57.855056 -0.000002 0.000001 0.000006 10.030110 13.637119 -84.750244 0.877119 0.062299 -64.595469 -0.000000 -0.000002 0.000001 -0.000003 0.000001 0.000000 -0.000003 0.000001 0.000000 -0.000003 0.000001 0.000000 -0.000001 -0.000001 0.000003 -0.000001 -0.000002 0.000001 -0.000001 -0.000001 0.000003 -0.000002 -0.000002 0.000002 3.982598 19.709897 3.730237 -24.454307 4.678997 37.090519 140.273480 71.780432 -145.773408 5.361427 -0.110359 4.820079 13.153483 0.458993 -6.994894 -0.426194 -24.662054 5.664075 -0.000000 -0.000001 -0.000002 1.770456 -2.830802 24.446774 -1.805895 -1.664660 33.469375 -0.000001 -0.000002 -0.000002 -0.886096 -4.086510 27.574558 0.038894 -3.788264 45.183897 0.000000 -0.000002 -0.000001 -1.777045 -7.831456 29.587703 2.625439 -3.317431 51.745079 0.000000 -0.000001 0.000000 -4.811187 -8.567998 42.150682 7.604472 -2.580004 59.179259 -0.000000 0.000003 -0.000000 -0.000004 0.000001 -0.000000 -0.000004 0.000001 -0.000000 -0.000004 0.000001 0.000001 -0.000000 0.000000 0.000002 0.000000 0.000000 0.000002 -0.000000 0.000000 0.000002 0.000001 0.000000 0.000004 0.000003 -0.000000 0.000000 0.000003 -0.000000 0.000000 0.000003 -0.000000 0.000000 0.000003 -0.000000 0.000000 0.000003 -0.000000 0.000000 0.000003 -0.000000 0.000000 0.000003 -0.000000 0.000000 -0.000004 0.000000 0.000001 -0.000000 -0.000001 0.000000 
